<svg width="24" height="24" viewBox="0 0 24 24" fill="none" xmlns="http://www.w3.org/2000/svg">
<path opacity="0.3" d="M4.5 5.57143C4.5 5.76087 4.56585 5.94255 4.68306 6.0765C4.80027 6.21046 4.95924 6.28571 5.125 6.28571H18.875C19.0408 6.28571 19.1997 6.21046 19.3169 6.0765C19.4342 5.94255 19.5 5.76087 19.5 5.57143C19.5 5.38199 19.4342 5.20031 19.3169 5.06635C19.1997 4.9324 19.0408 4.85714 18.875 4.85714H5.125C4.95924 4.85714 4.80027 4.9324 4.68306 5.06635C4.56585 5.20031 4.5 5.38199 4.5 5.57143ZM7 2.71429C7 2.90373 7.06585 3.08541 7.18306 3.21936C7.30027 3.35332 7.45924 3.42857 7.625 3.42857H16.375C16.5408 3.42857 16.6997 3.35332 16.8169 3.21936C16.9342 3.08541 17 2.90373 17 2.71429C17 2.52485 16.9342 2.34316 16.8169 2.20921C16.6997 2.07525 16.5408 2 16.375 2H7.625C7.45924 2 7.30027 2.07525 7.18306 2.20921C7.06585 2.34316 7 2.52485 7 2.71429Z" fill="#9399A5"/>
<path d="M2 19.8571C2 20.4254 2.19754 20.9705 2.54917 21.3723C2.90081 21.7742 3.37772 21.9999 3.875 21.9999H20.125C20.6223 21.9999 21.0992 21.7742 21.4508 21.3723C21.8025 20.9705 22 20.4254 22 19.8571V9.85709C22 9.28877 21.8025 8.74372 21.4508 8.34186C21.0992 7.94 20.6223 7.71423 20.125 7.71423H3.875C3.37772 7.71423 2.90081 7.94 2.54917 8.34186C2.19754 8.74372 2 9.28877 2 9.85709L2 19.8571Z" fill="#9399A5"/>
</svg>
